<svg xmlns="http://www.w3.org/2000/svg" viewBox="0 0 370.99 287.22"><defs><style>.cls-1,.cls-2,.cls-3,.cls-4{font-size:72px;font-family:FuturaCondXBooldOblique, Futura Condensed Extra Bold;}.cls-2{fill:#662d91;}.cls-3{fill:#fff;}.cls-4{fill:none;stroke:#000;}</style></defs><title>Ativo 1</title><g id="Camada_2" data-name="Camada 2"><g id="Camada_1-2" data-name="Camada 1"><text class="cls-1" transform="translate(0.5 64)">Star <tspan x="0" y="86.4">Travel</tspan></text><text class="cls-2" transform="translate(90.5 154)">Star <tspan x="0" y="86.4">Travel</tspan></text><text class="cls-2" transform="translate(90 153.5)">Star <tspan x="0" y="86.4">Travel</tspan></text><text class="cls-2" transform="translate(89.5 153)">Star <tspan x="0" y="86.4">Travel</tspan></text><text class="cls-2" transform="translate(89 152.5)">Star <tspan x="0" y="86.4">Travel</tspan></text><text class="cls-2" transform="translate(88.5 152)">Star <tspan x="0" y="86.4">Travel</tspan></text><text class="cls-2" transform="translate(88 151.5)">Star <tspan x="0" y="86.4">Travel</tspan></text><text class="cls-2" transform="translate(87.5 151)">Star <tspan x="0" y="86.4">Travel</tspan></text><text class="cls-2" transform="translate(87 150.5)">Star <tspan x="0" y="86.4">Travel</tspan></text><text class="cls-2" transform="translate(86.5 150)">Star <tspan x="0" y="86.4">Travel</tspan></text><text class="cls-2" transform="translate(86 149.5)">Star <tspan x="0" y="86.4">Travel</tspan></text><text class="cls-2" transform="translate(85.5 149)">Star <tspan x="0" y="86.4">Travel</tspan></text><text class="cls-2" transform="translate(85 148.5)">Star <tspan x="0" y="86.4">Travel</tspan></text><text class="cls-2" transform="translate(84.5 148)">Star <tspan x="0" y="86.4">Travel</tspan></text><text class="cls-2" transform="translate(84 147.5)">Star <tspan x="0" y="86.4">Travel</tspan></text><text class="cls-2" transform="translate(83.5 147)">Star <tspan x="0" y="86.4">Travel</tspan></text><text class="cls-2" transform="translate(83 146.5)">Star <tspan x="0" y="86.4">Travel</tspan></text><text class="cls-2" transform="translate(82.5 146)">Star <tspan x="0" y="86.4">Travel</tspan></text><text class="cls-2" transform="translate(82 145.5)">Star <tspan x="0" y="86.4">Travel</tspan></text><text class="cls-2" transform="translate(81.5 145)">Star <tspan x="0" y="86.4">Travel</tspan></text><text class="cls-2" transform="translate(81 144.5)">Star <tspan x="0" y="86.4">Travel</tspan></text><text class="cls-2" transform="translate(80.5 144)">Star <tspan x="0" y="86.4">Travel</tspan></text><text class="cls-2" transform="translate(80 143.5)">Star <tspan x="0" y="86.4">Travel</tspan></text><text class="cls-2" transform="translate(79.5 143)">Star <tspan x="0" y="86.4">Travel</tspan></text><text class="cls-2" transform="translate(79 142.5)">Star <tspan x="0" y="86.4">Travel</tspan></text><text class="cls-2" transform="translate(78.5 142)">Star <tspan x="0" y="86.4">Travel</tspan></text><text class="cls-2" transform="translate(78 141.5)">Star <tspan x="0" y="86.4">Travel</tspan></text><text class="cls-2" transform="translate(77.5 141)">Star <tspan x="0" y="86.4">Travel</tspan></text><text class="cls-2" transform="translate(77 140.5)">Star <tspan x="0" y="86.4">Travel</tspan></text><text class="cls-2" transform="translate(76.5 140)">Star <tspan x="0" y="86.4">Travel</tspan></text><text class="cls-2" transform="translate(76 139.5)">Star <tspan x="0" y="86.4">Travel</tspan></text><text class="cls-2" transform="translate(75.5 139)">Star <tspan x="0" y="86.4">Travel</tspan></text><text class="cls-2" transform="translate(75 138.5)">Star <tspan x="0" y="86.4">Travel</tspan></text><text class="cls-2" transform="translate(74.5 138)">Star <tspan x="0" y="86.4">Travel</tspan></text><text class="cls-2" transform="translate(74 137.5)">Star <tspan x="0" y="86.4">Travel</tspan></text><text class="cls-2" transform="translate(73.5 137)">Star <tspan x="0" y="86.4">Travel</tspan></text><text class="cls-2" transform="translate(73 136.5)">Star <tspan x="0" y="86.4">Travel</tspan></text><text class="cls-2" transform="translate(72.5 136)">Star <tspan x="0" y="86.4">Travel</tspan></text><text class="cls-2" transform="translate(72 135.5)">Star <tspan x="0" y="86.4">Travel</tspan></text><text class="cls-2" transform="translate(71.5 135)">Star <tspan x="0" y="86.4">Travel</tspan></text><text class="cls-2" transform="translate(71 134.5)">Star <tspan x="0" y="86.4">Travel</tspan></text><text class="cls-2" transform="translate(70.5 134)">Star <tspan x="0" y="86.4">Travel</tspan></text><text class="cls-2" transform="translate(70 133.5)">Star <tspan x="0" y="86.4">Travel</tspan></text><text class="cls-2" transform="translate(69.5 133)">Star <tspan x="0" y="86.4">Travel</tspan></text><text class="cls-2" transform="translate(69 132.5)">Star <tspan x="0" y="86.4">Travel</tspan></text><text class="cls-2" transform="translate(68.5 132)">Star <tspan x="0" y="86.4">Travel</tspan></text><text class="cls-2" transform="translate(68 131.5)">Star <tspan x="0" y="86.4">Travel</tspan></text><text class="cls-2" transform="translate(67.5 131)">Star <tspan x="0" y="86.4">Travel</tspan></text><text class="cls-2" transform="translate(67 130.5)">Star <tspan x="0" y="86.4">Travel</tspan></text><text class="cls-2" transform="translate(66.5 130)">Star <tspan x="0" y="86.4">Travel</tspan></text><text class="cls-2" transform="translate(66 129.5)">Star <tspan x="0" y="86.4">Travel</tspan></text><text class="cls-2" transform="translate(65.5 129)">Star <tspan x="0" y="86.4">Travel</tspan></text><text class="cls-2" transform="translate(65 128.5)">Star <tspan x="0" y="86.4">Travel</tspan></text><text class="cls-2" transform="translate(64.5 128)">Star <tspan x="0" y="86.4">Travel</tspan></text><text class="cls-2" transform="translate(64 127.5)">Star <tspan x="0" y="86.4">Travel</tspan></text><text class="cls-2" transform="translate(63.5 127)">Star <tspan x="0" y="86.4">Travel</tspan></text><text class="cls-2" transform="translate(63 126.5)">Star <tspan x="0" y="86.4">Travel</tspan></text><text class="cls-2" transform="translate(62.5 126)">Star <tspan x="0" y="86.4">Travel</tspan></text><text class="cls-2" transform="translate(62 125.5)">Star <tspan x="0" y="86.4">Travel</tspan></text><text class="cls-2" transform="translate(61.5 125)">Star <tspan x="0" y="86.4">Travel</tspan></text><text class="cls-2" transform="translate(61 124.5)">Star <tspan x="0" y="86.4">Travel</tspan></text><text class="cls-2" transform="translate(60.5 124)">Star <tspan x="0" y="86.4">Travel</tspan></text><text class="cls-2" transform="translate(60 123.5)">Star <tspan x="0" y="86.4">Travel</tspan></text><text class="cls-2" transform="translate(59.5 123)">Star <tspan x="0" y="86.4">Travel</tspan></text><text class="cls-2" transform="translate(59 122.5)">Star <tspan x="0" y="86.4">Travel</tspan></text><text class="cls-2" transform="translate(58.5 122)">Star <tspan x="0" y="86.4">Travel</tspan></text><text class="cls-2" transform="translate(58 121.5)">Star <tspan x="0" y="86.4">Travel</tspan></text><text class="cls-2" transform="translate(57.5 121)">Star <tspan x="0" y="86.4">Travel</tspan></text><text class="cls-2" transform="translate(57 120.5)">Star <tspan x="0" y="86.4">Travel</tspan></text><text class="cls-2" transform="translate(56.5 120)">Star <tspan x="0" y="86.4">Travel</tspan></text><text class="cls-2" transform="translate(56 119.5)">Star <tspan x="0" y="86.4">Travel</tspan></text><text class="cls-2" transform="translate(55.5 119)">Star <tspan x="0" y="86.4">Travel</tspan></text><text class="cls-2" transform="translate(55 118.5)">Star <tspan x="0" y="86.4">Travel</tspan></text><text class="cls-2" transform="translate(54.5 118)">Star <tspan x="0" y="86.4">Travel</tspan></text><text class="cls-2" transform="translate(54 117.5)">Star <tspan x="0" y="86.4">Travel</tspan></text><text class="cls-2" transform="translate(53.5 117)">Star <tspan x="0" y="86.4">Travel</tspan></text><text class="cls-2" transform="translate(53 116.5)">Star <tspan x="0" y="86.4">Travel</tspan></text><text class="cls-2" transform="translate(52.5 116)">Star <tspan x="0" y="86.4">Travel</tspan></text><text class="cls-2" transform="translate(52 115.5)">Star <tspan x="0" y="86.4">Travel</tspan></text><text class="cls-2" transform="translate(51.5 115)">Star <tspan x="0" y="86.4">Travel</tspan></text><text class="cls-2" transform="translate(51 114.5)">Star <tspan x="0" y="86.4">Travel</tspan></text><text class="cls-2" transform="translate(50.5 114)">Star <tspan x="0" y="86.4">Travel</tspan></text><text class="cls-2" transform="translate(50 113.5)">Star <tspan x="0" y="86.4">Travel</tspan></text><text class="cls-2" transform="translate(49.5 113)">Star <tspan x="0" y="86.4">Travel</tspan></text><text class="cls-2" transform="translate(49 112.5)">Star <tspan x="0" y="86.4">Travel</tspan></text><text class="cls-2" transform="translate(48.5 112)">Star <tspan x="0" y="86.4">Travel</tspan></text><text class="cls-2" transform="translate(48 111.5)">Star <tspan x="0" y="86.4">Travel</tspan></text><text class="cls-2" transform="translate(47.5 111)">Star <tspan x="0" y="86.4">Travel</tspan></text><text class="cls-2" transform="translate(47 110.5)">Star <tspan x="0" y="86.4">Travel</tspan></text><text class="cls-2" transform="translate(46.5 110)">Star <tspan x="0" y="86.4">Travel</tspan></text><text class="cls-2" transform="translate(46 109.5)">Star <tspan x="0" y="86.4">Travel</tspan></text><text class="cls-2" transform="translate(45.5 109)">Star <tspan x="0" y="86.4">Travel</tspan></text><text class="cls-2" transform="translate(45 108.5)">Star <tspan x="0" y="86.4">Travel</tspan></text><text class="cls-2" transform="translate(44.5 108)">Star <tspan x="0" y="86.4">Travel</tspan></text><text class="cls-2" transform="translate(44 107.5)">Star <tspan x="0" y="86.4">Travel</tspan></text><text class="cls-2" transform="translate(43.5 107)">Star <tspan x="0" y="86.4">Travel</tspan></text><text class="cls-2" transform="translate(43 106.5)">Star <tspan x="0" y="86.4">Travel</tspan></text><text class="cls-2" transform="translate(42.5 106)">Star <tspan x="0" y="86.4">Travel</tspan></text><text class="cls-2" transform="translate(42 105.5)">Star <tspan x="0" y="86.4">Travel</tspan></text><text class="cls-2" transform="translate(41.5 105)">Star <tspan x="0" y="86.4">Travel</tspan></text><text class="cls-2" transform="translate(41 104.5)">Star <tspan x="0" y="86.4">Travel</tspan></text><text class="cls-2" transform="translate(40.5 104)">Star <tspan x="0" y="86.4">Travel</tspan></text><text class="cls-2" transform="translate(40 103.5)">Star <tspan x="0" y="86.4">Travel</tspan></text><text class="cls-2" transform="translate(39.5 103)">Star <tspan x="0" y="86.4">Travel</tspan></text><text class="cls-2" transform="translate(39 102.5)">Star <tspan x="0" y="86.4">Travel</tspan></text><text class="cls-2" transform="translate(38.5 102)">Star <tspan x="0" y="86.4">Travel</tspan></text><text class="cls-2" transform="translate(38 101.5)">Star <tspan x="0" y="86.4">Travel</tspan></text><text class="cls-2" transform="translate(37.5 101)">Star <tspan x="0" y="86.4">Travel</tspan></text><text class="cls-2" transform="translate(37 100.5)">Star <tspan x="0" y="86.4">Travel</tspan></text><text class="cls-2" transform="translate(36.5 100)">Star <tspan x="0" y="86.4">Travel</tspan></text><text class="cls-2" transform="translate(36 99.5)">Star <tspan x="0" y="86.4">Travel</tspan></text><text class="cls-2" transform="translate(35.5 99)">Star <tspan x="0" y="86.4">Travel</tspan></text><text class="cls-2" transform="translate(35 98.5)">Star <tspan x="0" y="86.4">Travel</tspan></text><text class="cls-2" transform="translate(34.5 98)">Star <tspan x="0" y="86.4">Travel</tspan></text><text class="cls-2" transform="translate(34 97.5)">Star <tspan x="0" y="86.4">Travel</tspan></text><text class="cls-2" transform="translate(33.5 97)">Star <tspan x="0" y="86.4">Travel</tspan></text><text class="cls-2" transform="translate(33 96.5)">Star <tspan x="0" y="86.4">Travel</tspan></text><text class="cls-2" transform="translate(32.5 96)">Star <tspan x="0" y="86.4">Travel</tspan></text><text class="cls-2" transform="translate(32 95.5)">Star <tspan x="0" y="86.4">Travel</tspan></text><text class="cls-2" transform="translate(31.5 95)">Star <tspan x="0" y="86.4">Travel</tspan></text><text class="cls-2" transform="translate(31 94.5)">Star <tspan x="0" y="86.4">Travel</tspan></text><text class="cls-2" transform="translate(30.5 94)">Star <tspan x="0" y="86.4">Travel</tspan></text><text class="cls-2" transform="translate(30 93.5)">Star <tspan x="0" y="86.4">Travel</tspan></text><text class="cls-2" transform="translate(29.5 93)">Star <tspan x="0" y="86.4">Travel</tspan></text><text class="cls-2" transform="translate(29 92.5)">Star <tspan x="0" y="86.4">Travel</tspan></text><text class="cls-2" transform="translate(28.5 92)">Star <tspan x="0" y="86.4">Travel</tspan></text><text class="cls-2" transform="translate(28 91.5)">Star <tspan x="0" y="86.4">Travel</tspan></text><text class="cls-2" transform="translate(27.5 91)">Star <tspan x="0" y="86.4">Travel</tspan></text><text class="cls-2" transform="translate(27 90.5)">Star <tspan x="0" y="86.4">Travel</tspan></text><text class="cls-2" transform="translate(26.5 90)">Star <tspan x="0" y="86.4">Travel</tspan></text><text class="cls-2" transform="translate(26 89.5)">Star <tspan x="0" y="86.4">Travel</tspan></text><text class="cls-2" transform="translate(25.5 89)">Star <tspan x="0" y="86.4">Travel</tspan></text><text class="cls-2" transform="translate(25 88.5)">Star <tspan x="0" y="86.4">Travel</tspan></text><text class="cls-2" transform="translate(24.5 88)">Star <tspan x="0" y="86.4">Travel</tspan></text><text class="cls-2" transform="translate(24 87.5)">Star <tspan x="0" y="86.4">Travel</tspan></text><text class="cls-2" transform="translate(23.5 87)">Star <tspan x="0" y="86.4">Travel</tspan></text><text class="cls-2" transform="translate(23 86.5)">Star <tspan x="0" y="86.4">Travel</tspan></text><text class="cls-2" transform="translate(22.5 86)">Star <tspan x="0" y="86.4">Travel</tspan></text><text class="cls-2" transform="translate(22 85.5)">Star <tspan x="0" y="86.4">Travel</tspan></text><text class="cls-2" transform="translate(21.5 85)">Star <tspan x="0" y="86.4">Travel</tspan></text><text class="cls-2" transform="translate(21 84.5)">Star <tspan x="0" y="86.4">Travel</tspan></text><text class="cls-2" transform="translate(20.5 84)">Star <tspan x="0" y="86.4">Travel</tspan></text><text class="cls-2" transform="translate(20 83.5)">Star <tspan x="0" y="86.4">Travel</tspan></text><text class="cls-2" transform="translate(19.5 83)">Star <tspan x="0" y="86.4">Travel</tspan></text><text class="cls-2" transform="translate(19 82.5)">Star <tspan x="0" y="86.4">Travel</tspan></text><text class="cls-2" transform="translate(18.5 82)">Star <tspan x="0" y="86.4">Travel</tspan></text><text class="cls-2" transform="translate(18 81.5)">Star <tspan x="0" y="86.4">Travel</tspan></text><text class="cls-2" transform="translate(17.5 81)">Star <tspan x="0" y="86.4">Travel</tspan></text><text class="cls-2" transform="translate(17 80.5)">Star <tspan x="0" y="86.4">Travel</tspan></text><text class="cls-2" transform="translate(16.5 80)">Star <tspan x="0" y="86.4">Travel</tspan></text><text class="cls-2" transform="translate(16 79.5)">Star <tspan x="0" y="86.4">Travel</tspan></text><text class="cls-2" transform="translate(15.5 79)">Star <tspan x="0" y="86.4">Travel</tspan></text><text class="cls-2" transform="translate(15 78.5)">Star <tspan x="0" y="86.4">Travel</tspan></text><text class="cls-2" transform="translate(14.5 78)">Star <tspan x="0" y="86.4">Travel</tspan></text><text class="cls-2" transform="translate(14 77.5)">Star <tspan x="0" y="86.4">Travel</tspan></text><text class="cls-2" transform="translate(13.5 77)">Star <tspan x="0" y="86.4">Travel</tspan></text><text class="cls-2" transform="translate(13 76.5)">Star <tspan x="0" y="86.4">Travel</tspan></text><text class="cls-2" transform="translate(12.5 76)">Star <tspan x="0" y="86.4">Travel</tspan></text><text class="cls-2" transform="translate(12 75.5)">Star <tspan x="0" y="86.4">Travel</tspan></text><text class="cls-2" transform="translate(11.5 75)">Star <tspan x="0" y="86.4">Travel</tspan></text><text class="cls-2" transform="translate(11 74.5)">Star <tspan x="0" y="86.4">Travel</tspan></text><text class="cls-2" transform="translate(10.5 74)">Star <tspan x="0" y="86.4">Travel</tspan></text><text class="cls-2" transform="translate(10 73.5)">Star <tspan x="0" y="86.4">Travel</tspan></text><text class="cls-2" transform="translate(9.5 73)">Star <tspan x="0" y="86.4">Travel</tspan></text><text class="cls-2" transform="translate(9 72.5)">Star <tspan x="0" y="86.4">Travel</tspan></text><text class="cls-2" transform="translate(8.5 72)">Star <tspan x="0" y="86.4">Travel</tspan></text><text class="cls-2" transform="translate(8 71.5)">Star <tspan x="0" y="86.4">Travel</tspan></text><text class="cls-2" transform="translate(7.5 71)">Star <tspan x="0" y="86.4">Travel</tspan></text><text class="cls-2" transform="translate(7 70.5)">Star <tspan x="0" y="86.4">Travel</tspan></text><text class="cls-2" transform="translate(6.5 70)">Star <tspan x="0" y="86.4">Travel</tspan></text><text class="cls-2" transform="translate(6 69.5)">Star <tspan x="0" y="86.4">Travel</tspan></text><text class="cls-2" transform="translate(5.5 69)">Star <tspan x="0" y="86.4">Travel</tspan></text><text class="cls-2" transform="translate(5 68.5)">Star <tspan x="0" y="86.4">Travel</tspan></text><text class="cls-2" transform="translate(4.5 68)">Star <tspan x="0" y="86.4">Travel</tspan></text><text class="cls-2" transform="translate(4 67.5)">Star <tspan x="0" y="86.4">Travel</tspan></text><text class="cls-2" transform="translate(3.5 67)">Star <tspan x="0" y="86.4">Travel</tspan></text><text class="cls-2" transform="translate(3 66.5)">Star <tspan x="0" y="86.4">Travel</tspan></text><text class="cls-2" transform="translate(2.5 66)">Star <tspan x="0" y="86.4">Travel</tspan></text><text class="cls-2" transform="translate(2 65.5)">Star <tspan x="0" y="86.4">Travel</tspan></text><text class="cls-2" transform="translate(1.5 65)">Star <tspan x="0" y="86.4">Travel</tspan></text><text class="cls-2" transform="translate(1 64.5)">Star <tspan x="0" y="86.4">Travel</tspan></text><text class="cls-2" transform="translate(0.5 64)">Star <tspan x="0" y="86.4">Travel</tspan></text><text class="cls-3" transform="translate(0.5 64)">Star <tspan x="0" y="86.4">Travel</tspan></text><text class="cls-4" transform="translate(0.5 64)">Star <tspan x="0" y="86.4">Travel</tspan></text></g></g></svg>