<svg xmlns="http://www.w3.org/2000/svg" viewBox="0 0 410.89 400.65"><defs><style>.cls-1{fill:none;stroke:gray;stroke-miterlimit:10;stroke-width:2px;opacity:0.74;}.cls-2{fill:#785a91;}</style></defs><title>Ativo 6</title><g id="Camada_2" data-name="Camada 2"><g id="Camada_1-2" data-name="Camada 1"><path class="cls-1" d="M388.83,251.31q7.17,1.62,14.37,3.07c-.12-1.23-.23-2.47-.36-3.7-4.17-1.14-8.33-2.36-12.47-3.61q-3.28.59-6.6,1.06Z"/><path class="cls-1" d="M385,260.61q-5.16-1.17-10.3-2.42,11.58,5.73,23.21,11.36c1.48.72,3,1.42,4.45,2.13v0Q393.69,266.09,385,260.61Z"/><path class="cls-1" d="M365.54,274.46c11.59,2.93,23.23,5.7,34.87,8.59l1.38.34c0-.31,0-.62,0-.92-22.86-10.89-45.51-22.21-68.12-33.62a190.27,190.27,0,0,1-22.3-3.93l3.38,1.79C331.72,255.78,348.56,265.25,365.54,274.46Z"/><path class="cls-1" d="M195,183.58c32.61,39.24,79,62.11,126.56,78.16-20.92-11.23-41.9-22.34-63.14-33a4.35,4.35,0,0,1-1.85-6.35q-6-3.67-11.71-7.76-9.5-3.91-18.9-8c-3.87-1.66-3-5.92-.33-8a179.83,179.83,0,0,1-23.78-27.8q-13.51-7.92-26.54-17A165.17,165.17,0,0,0,195,183.58Z"/><path class="cls-1" d="M171.52,72.44A168.71,168.71,0,0,1,188,1.26a239.41,239.41,0,0,0-61.49,17.55A205.29,205.29,0,0,0,171.52,72.44Z"/><path class="cls-1" d="M117.41,23a226.7,226.7,0,0,0-35.3,21.46,321.49,321.49,0,0,0,21.54,29.33,411.21,411.21,0,0,0,49.67,50.63c-.89-3.4-1.69-6.85-2.35-10.34-1.19-6.3,8.45-9,9.64-2.66a154,154,0,0,0,6.8,24.5q11.43,8.88,23.5,16.84a168.63,168.63,0,0,1-19-67.26A213.29,213.29,0,0,1,117.41,23Z"/><path class="cls-1" d="M409.87,308.14c-5.65-2.53-11.25-5.17-16.75-8-9.92-5.11-19.74-10.41-29.55-15.72A584.71,584.71,0,0,1,307,267.19c-25.61-9.38-51.94-20.61-74.43-36.24-32.23-22.41-59.34-52.67-73.57-89-33-25.59-62.36-56.57-84.85-91.24a211.14,211.14,0,0,0-28.89,28.6C48,81.52,50.73,83.76,53.48,86c13.34,10.67,27.05,21.1,41,30.94,13.53,9.55,28.06,18.73,44.46,22.21,6.3,1.34,3.62,11-2.66,9.65-16.66-3.55-31.68-12.64-45.49-22.27-14.13-9.86-27.91-20.43-41.42-31.11-3.46-2.72-6.87-5.49-10.27-8.29A196.77,196.77,0,0,0,24.51,109.5,387.39,387.39,0,0,0,53.87,140c21.12,19.53,45.94,37.58,74.68,43.3,6.32,1.26,3.63,10.89-2.66,9.64-16-3.17-31-10.16-44.62-18.86C58,159.2,37.78,139.75,19.57,119A182.73,182.73,0,0,0,1,199.15c0,5.95.31,11.83.87,17.65C12.48,227.49,23.26,238,34.29,248.27c49.43,46,105.53,90.07,170.88,110.32,6.14,1.91,3.51,11.56-2.66,9.65A313.1,313.1,0,0,1,149.45,346C95.1,317.33,47.83,276.5,4.24,233.33,22.29,327.78,113.8,399.65,224,399.65c56.48,0,108-18.9,147.3-50-7.11-1.58-14.19-3.41-21.26-5.62a512.28,512.28,0,0,1-69.23-27.45c-45.08-21.75-87.06-50.16-123.36-84.67-4.67-4.45,2.41-11.51,7.07-7.07a456.85,456.85,0,0,0,66,51.95,497.19,497.19,0,0,0,135.09,61.44c5,1.41,10,2.58,15.08,3.58a207.86,207.86,0,0,0,29.21-31.87c0-.56,0-1.11,0-1.67A.43.43,0,0,1,409.87,308.14Zm-211.18,6.32c37.56,24.67,77.52,46.06,122.07,54.52,6.32,1.21,3.63,10.84-2.66,9.65-25.25-4.8-49.44-13.67-72.43-25.1-20.09-10-39.2-21.83-57.84-34.29q-29.78-19.89-59.09-40.51c-38.72-27.28-76.32-56.53-109-91-4.43-4.67,2.64-11.75,7.07-7.07a575.35,575.35,0,0,0,58.59,53.4C121.53,262.93,160.08,289.1,198.69,314.46Zm44.48-50.11c-35.36-35.15-78.09-61.94-119.77-88.82-5.4-3.49-.38-12.14,5-8.64,42.37,27.34,85.84,54.65,121.79,90.39C254.81,261.83,247.73,268.9,243.17,264.35Z"/><path class="cls-2" d="M97,147.05c.83,8.39,6,15.08,17.61,15.08,11.06,0,16.61-4.67,16.61-14.08,0-8.57-4.49-13.15-18.83-18.5C95.91,123.44,88.62,117.79,88.62,106c0-11.21,9.28-20.18,26.48-20.18,20.36,0,25.86,11.3,26.17,20.87h-11.4c-.52-4-2.08-13.38-15.18-13.38-10.14,0-14.45,5.38-14.45,11.91,0,7.82,4.51,11.5,17.72,16.37,18.44,6.81,25.18,13.61,25.18,25.76,0,12.89-9.4,22.31-28.81,22.31-21.13,0-28.08-10.7-28.9-22.57Z"/><path class="cls-2" d="M145.16,107.56h11.11V91.32h11.25v16.24h13.72v7.54H167.52v40c0,4.19,1.18,6.81,7.13,6.81a39.08,39.08,0,0,0,5.55-.32v6.76a36.44,36.44,0,0,1-9.29,1c-9.26,0-14.64-2.91-14.64-12.51V115.1H145.16Z"/><path class="cls-2" d="M233.38,123.53v34.2c0,3.81.41,8.84.62,10.76H223.6a31.4,31.4,0,0,1-.77-6.92c-2.91,5-8.83,8-18.62,8-15.12,0-20.57-9.15-20.57-17.61,0-11.16,9.74-19.51,30.38-19.51,3.68,0,5.9,0,8.21.2v-8.12c0-4.76-1.17-10.78-11.83-10.78-11.54,0-12.27,6.39-12.74,10.48h-11c.31-8.71,5.7-17.68,24.09-17.68,15.29,0,22.6,5.74,22.6,17Zm-10.88,16.1a64.31,64.31,0,0,0-7.8-.31c-14,0-19.71,5.19-19.71,12,0,5.61,3.82,10.79,12.24,10.79,11.52,0,15.27-6.3,15.27-19.13Z"/><path class="cls-2" d="M247.59,128.32c0-9.72,0-16.39-.15-20.76h10.92a107.41,107.41,0,0,1,.37,10.87c3.35-7.36,10.94-11.72,20.81-11.8v9.71C266,116.67,259,123.26,259,134.46v34H247.59Z"/><path class="cls-2" d="M104.75,239.07H81.25v-8h58.58v8H116.32v73.62H104.75Z"/><path class="cls-2" d="M132.71,272.52c0-9.71,0-16.39-.16-20.76h10.93a107.58,107.58,0,0,1,.37,10.87c3.35-7.36,10.93-11.72,20.81-11.79v9.7c-13.54.34-20.59,6.93-20.59,18.12v34H132.71Z"/><path class="cls-2" d="M214.6,301.93c0,3.82.41,8.85.62,10.76h-10.4a31.26,31.26,0,0,1-.78-6.92c-2.9,5-8.83,8-18.61,8-15.12,0-20.58-9.15-20.58-17.62,0-11.16,9.74-19.5,30.38-19.5,3.69,0,5.91,0,8.22.19v-8.12c0-4.76-1.17-10.77-11.83-10.77-11.54,0-12.28,6.39-12.74,10.47h-11c.31-8.71,5.7-17.67,24.1-17.67,15.29,0,22.6,5.74,22.6,17Zm-10.89-18.09a63.58,63.58,0,0,0-7.79-.32c-14,0-19.72,5.19-19.72,12,0,5.62,3.83,10.79,12.25,10.79,11.52,0,15.26-6.3,15.26-19.13Z"/><path class="cls-2" d="M231,251.76c6.47,19.75,14.29,43.56,15.85,51H247c1.05-6.72,12.85-38.61,16.67-51h11.46l-22.51,60.93H240.31l-21.37-60.93Z"/><path class="cls-2" d="M288.2,283.87c0,11.94,2.64,22.37,15.13,22.37s13.93-9.06,14.34-10.91H328.8c-.21,1.58-2.42,18.49-25.59,18.49s-26.42-16.44-26.42-31.61c0-19.28,8.54-31.45,27-31.45,20.7,0,25.59,13.19,25.59,28.41,0,1.16-.05,3.2-.21,4.7Zm29.88-6.9c0-10.48-2.88-18.68-14.35-18.68-14.4,0-15.12,14.5-15.32,18.68Z"/><path class="cls-2" d="M339.2,312.69V227.15h11.36v85.54Z"/><path d="M91.87,143c.83,8.39,6,15.09,17.61,15.09,11,0,16.61-4.68,16.61-14.08,0-8.58-4.49-13.16-18.84-18.51-16.52-6.1-23.8-11.76-23.8-23.58,0-11.21,9.27-20.18,26.47-20.18,20.37,0,25.86,11.3,26.18,20.87H124.69c-.52-4-2.07-13.38-15.18-13.38-10.14,0-14.45,5.38-14.45,11.91,0,7.81,4.51,11.5,17.72,16.37,18.44,6.8,25.19,13.6,25.19,25.76,0,12.89-9.4,22.31-28.82,22.31-21.13,0-28.08-10.71-28.9-22.58Z"/><path d="M140,103.55h11.1V87.32h11.26v16.23h13.71v7.54H162.35v40c0,4.18,1.18,6.8,7.12,6.8a39.18,39.18,0,0,0,5.55-.31v6.76a36.39,36.39,0,0,1-9.29,1c-9.25,0-14.64-2.92-14.64-12.51V111.09H140Z"/><path d="M228.2,119.53v34.19c0,3.82.42,8.85.63,10.77h-10.4a31.44,31.44,0,0,1-.78-6.93c-2.9,5-8.83,8-18.61,8-15.13,0-20.58-9.15-20.58-17.62,0-11.16,9.74-19.5,30.38-19.5,3.69,0,5.91,0,8.22.19v-8.11c0-4.77-1.17-10.78-11.83-10.78-11.55,0-12.28,6.39-12.75,10.47h-11c.31-8.71,5.7-17.67,24.09-17.67,15.29,0,22.6,5.74,22.6,17Zm-10.88,16.1a63.76,63.76,0,0,0-7.8-.32c-14,0-19.71,5.19-19.71,12,0,5.62,3.82,10.79,12.25,10.79,11.51,0,15.26-6.29,15.26-19.13Z"/><path d="M242.41,124.31c0-9.71,0-16.39-.15-20.76h10.93c.15,1.59.36,4.42.36,10.87,3.35-7.36,10.94-11.72,20.82-11.79v9.7c-13.54.34-20.6,6.93-20.6,18.12v34H242.41Z"/><path d="M99.58,235.07H76.07v-8h58.58v8h-23.5v73.62H99.58Z"/><path d="M127.53,268.52c0-9.72,0-16.4-.15-20.76H138.3a107.41,107.41,0,0,1,.37,10.87c3.35-7.36,10.94-11.72,20.81-11.8v9.71c-13.54.33-20.59,6.92-20.59,18.12v34H127.53Z"/><path d="M209.42,297.92c0,3.82.41,8.85.62,10.77H199.65a30.77,30.77,0,0,1-.78-6.93c-2.91,5-8.83,8-18.61,8-15.13,0-20.58-9.15-20.58-17.62,0-11.15,9.74-19.5,30.38-19.5,3.69,0,5.9,0,8.21.2v-8.12c0-4.76-1.16-10.78-11.83-10.78-11.54,0-12.27,6.39-12.74,10.48h-11c.31-8.71,5.7-17.68,24.09-17.68,15.29,0,22.6,5.74,22.6,17Zm-10.88-18.09a63.76,63.76,0,0,0-7.8-.32c-14,0-19.71,5.2-19.71,12,0,5.61,3.82,10.79,12.25,10.79,11.51,0,15.26-6.3,15.26-19.14Z"/><path d="M225.82,247.76c6.46,19.74,14.28,43.55,15.84,51h.16c1.05-6.72,12.86-38.61,16.68-51H270l-22.52,60.93H235.13l-21.37-60.93Z"/><path d="M283,279.87c0,11.93,2.64,22.36,15.13,22.36s13.94-9.05,14.35-10.9h11.13c-.21,1.57-2.42,18.48-25.59,18.48s-26.42-16.44-26.42-31.6c0-19.29,8.53-31.46,27-31.46,20.7,0,25.6,13.19,25.6,28.41,0,1.17-.06,3.2-.21,4.71ZM312.9,273c0-10.48-2.87-18.67-14.35-18.67-14.39,0-15.12,14.49-15.32,18.67Z"/><path d="M334,308.69V223.14h11.36v85.55Z"/></g></g></svg>