<svg xmlns="http://www.w3.org/2000/svg" viewBox="0 0 410.88 400.65"><defs><style>.cls-1{fill:none;stroke:#999;stroke-width:2px;}.cls-1,.cls-3{stroke-miterlimit:10;}.cls-2{fill:#785a91;}.cls-3{fill:#fff;stroke:#000;}</style></defs><title>Ativo 9</title><g id="Camada_2" data-name="Camada 2"><g id="Camada_1-2" data-name="Camada 1"><path class="cls-1" d="M389,251.36q6.3,1.41,12.62,2.71a1.17,1.17,0,0,0,1.4-1.27c0-.44-.08-.88-.13-1.32a1.18,1.18,0,0,0-.85-1c-3.83-1.06-7.64-2.18-11.44-3.32a1.18,1.18,0,0,0-.53,0q-1.61.28-3.21.54a1.17,1.17,0,0,0-.45,2.15l2.22,1.39A1.22,1.22,0,0,0,389,251.36Z"/><path class="cls-1" d="M384.79,260.57l-.11,0a1.18,1.18,0,0,0-.78,2.2q7,3.43,14,6.81c1.48.72,3,1.42,4.45,2.13v0q-8.58-5.49-17.19-10.92A1.14,1.14,0,0,0,384.79,260.57Z"/><path class="cls-1" d="M365.4,274.39a1.33,1.33,0,0,0,.28.1c11.54,2.93,23.13,5.68,34.73,8.56l1.38.34c0-.31,0-.62,0-.92C379,271.6,356.38,260.32,333.84,249a1.27,1.27,0,0,0-.39-.12,190.7,190.7,0,0,1-22.1-3.91l3.38,1.79C331.68,255.76,348.48,265.2,365.4,274.39Z"/><path class="cls-1" d="M195,183.58c32.61,39.24,79,62.11,126.56,78.16-20.92-11.23-41.9-22.34-63.14-33a4.35,4.35,0,0,1-1.85-6.35q-6-3.67-11.71-7.76-9.5-3.91-18.9-8c-3.87-1.66-3-5.92-.33-8a179.83,179.83,0,0,1-23.78-27.8q-13.51-7.92-26.54-17A165.17,165.17,0,0,0,195,183.58Z"/><path class="cls-1" d="M171.52,72.44A168.71,168.71,0,0,1,188,1.26a239.41,239.41,0,0,0-61.49,17.55A205.29,205.29,0,0,0,171.52,72.44Z"/><path class="cls-1" d="M117.41,23a226.7,226.7,0,0,0-35.3,21.46,321.49,321.49,0,0,0,21.54,29.33,411.21,411.21,0,0,0,49.67,50.63c-.89-3.4-1.69-6.85-2.35-10.34-1.19-6.3,8.45-9,9.64-2.66a154,154,0,0,0,6.8,24.5q11.43,8.88,23.5,16.84a168.63,168.63,0,0,1-19-67.26A213.29,213.29,0,0,1,117.41,23Z"/><path class="cls-1" d="M409.16,307.82c-5.41-2.43-10.77-5-16-7.69-9.88-5.09-19.66-10.36-29.43-15.65a1.19,1.19,0,0,0-.26-.11A585.5,585.5,0,0,1,307,267.19c-25.61-9.38-51.94-20.61-74.43-36.24-32.14-22.35-59.19-52.51-73.45-88.74a1.15,1.15,0,0,0-.36-.48c-32.57-25.28-61.55-55.82-83.9-89.95a1.18,1.18,0,0,0-1.73-.27A211.12,211.12,0,0,0,46,78.37,1.17,1.17,0,0,0,46.19,80C48.61,82,51,84,53.48,86c13.34,10.67,27.05,21.1,41,30.94,13.53,9.55,28.06,18.73,44.46,22.21,6.3,1.34,3.62,11-2.66,9.65-16.66-3.55-31.68-12.64-45.49-22.27-14.13-9.86-27.91-20.43-41.42-31.11q-4.69-3.7-9.32-7.51a1.18,1.18,0,0,0-1.69.21,196.44,196.44,0,0,0-13.45,20.7,1.21,1.21,0,0,0,.14,1.36A390.18,390.18,0,0,0,53.87,140c21.12,19.53,45.94,37.58,74.68,43.3,6.32,1.26,3.63,10.89-2.66,9.64-16-3.17-31-10.16-44.62-18.86-22.8-14.53-42.62-33.47-60.53-53.75a1.17,1.17,0,0,0-1.93.27A182.42,182.42,0,0,0,1,199.15c0,5.8.29,11.55.83,17.23a1.22,1.22,0,0,0,.34.72c10.52,10.59,21.19,21,32.12,31.17,49.43,46,105.53,90.07,170.88,110.32,6.14,1.91,3.51,11.56-2.66,9.65A313.1,313.1,0,0,1,149.45,346C96.23,317.93,49.81,278.2,7,236a1.17,1.17,0,0,0-2,1.09c19.73,92.58,110.27,162.54,219,162.54,55.55,0,106.33-18.28,145.36-48.5a1.17,1.17,0,0,0-.47-2.06c-6.3-1.45-12.58-3.12-18.85-5.08a512.28,512.28,0,0,1-69.23-27.45c-45.08-21.75-87.06-50.16-123.36-84.67-4.67-4.45,2.41-11.51,7.07-7.07a456.85,456.85,0,0,0,66,51.95,497.19,497.19,0,0,0,135.09,61.44c4.79,1.36,9.63,2.49,14.5,3.46a1.18,1.18,0,0,0,1-.28,207.37,207.37,0,0,0,28.54-31.16,1.17,1.17,0,0,0,.23-.7c0-.19,0-.39,0-.58Zm-210.47,6.64c37.56,24.67,77.52,46.06,122.07,54.52,6.32,1.21,3.63,10.84-2.66,9.65-25.25-4.8-49.44-13.67-72.43-25.1-20.09-10-39.2-21.83-57.84-34.29q-29.78-19.89-59.09-40.51c-38.72-27.28-76.32-56.53-109-91-4.43-4.67,2.64-11.75,7.07-7.07a575.35,575.35,0,0,0,58.59,53.4C121.53,262.93,160.08,289.1,198.69,314.46Zm44.48-50.11c-35.36-35.15-78.09-61.94-119.77-88.82-5.4-3.49-.38-12.14,5-8.64,42.37,27.34,85.84,54.65,121.79,90.39C254.81,261.83,247.73,268.9,243.17,264.35Z"/><path class="cls-2" d="M97,147.05c.83,8.39,6,15.08,17.61,15.08,11.06,0,16.61-4.67,16.61-14.08,0-8.57-4.49-13.15-18.83-18.5C95.91,123.44,88.62,117.79,88.62,106c0-11.21,9.28-20.18,26.48-20.18,20.36,0,25.86,11.3,26.17,20.87h-11.4c-.52-4-2.08-13.38-15.18-13.38-10.14,0-14.45,5.38-14.45,11.91,0,7.82,4.51,11.5,17.72,16.37,18.44,6.81,25.18,13.61,25.18,25.76,0,12.89-9.4,22.31-28.81,22.31-21.13,0-28.08-10.7-28.9-22.57Z"/><path class="cls-2" d="M145.16,107.56h11.11V91.32h11.25v16.24h13.72v7.54H167.52v40c0,4.19,1.18,6.81,7.13,6.81a39.08,39.08,0,0,0,5.55-.32v6.76a36.44,36.44,0,0,1-9.29,1c-9.26,0-14.64-2.91-14.64-12.51V115.1H145.16Z"/><path class="cls-2" d="M233.38,123.53v34.2c0,3.81.41,8.84.62,10.76H223.6a31.4,31.4,0,0,1-.77-6.92c-2.91,5-8.83,8-18.62,8-15.12,0-20.57-9.15-20.57-17.61,0-11.16,9.74-19.51,30.38-19.51,3.68,0,5.9,0,8.21.2v-8.12c0-4.76-1.17-10.78-11.83-10.78-11.54,0-12.27,6.39-12.74,10.48h-11c.31-8.71,5.7-17.68,24.09-17.68,15.29,0,22.6,5.74,22.6,17Zm-10.88,16.1a64.31,64.31,0,0,0-7.8-.31c-14,0-19.71,5.19-19.71,12,0,5.61,3.82,10.79,12.24,10.79,11.52,0,15.27-6.3,15.27-19.13Z"/><path class="cls-2" d="M247.59,128.32c0-9.72,0-16.39-.16-20.76h10.93a107.41,107.41,0,0,1,.37,10.87c3.35-7.36,10.94-11.72,20.81-11.8v9.71C266,116.67,259,123.26,259,134.46v34H247.59Z"/><path class="cls-2" d="M104.75,239.07H81.25v-8h58.58v8H116.32v73.62H104.75Z"/><path class="cls-2" d="M132.71,272.52c0-9.71,0-16.39-.16-20.76h10.93a107.58,107.58,0,0,1,.37,10.87c3.35-7.36,10.93-11.72,20.81-11.79v9.7c-13.54.34-20.59,6.93-20.59,18.12v34H132.71Z"/><path class="cls-2" d="M214.6,301.93c0,3.82.41,8.85.62,10.76h-10.4a31.26,31.26,0,0,1-.78-6.92c-2.9,5-8.83,8-18.61,8-15.12,0-20.58-9.15-20.58-17.62,0-11.16,9.74-19.5,30.38-19.5,3.69,0,5.91,0,8.22.19v-8.12c0-4.76-1.17-10.77-11.83-10.77-11.54,0-12.28,6.39-12.74,10.47h-11c.31-8.71,5.7-17.67,24.1-17.67,15.29,0,22.6,5.74,22.6,17Zm-10.89-18.09a63.58,63.58,0,0,0-7.79-.32c-14,0-19.72,5.19-19.72,12,0,5.62,3.83,10.79,12.25,10.79,11.52,0,15.26-6.3,15.26-19.13Z"/><path class="cls-2" d="M231,251.76c6.47,19.75,14.29,43.56,15.85,51H247c1.05-6.72,12.85-38.61,16.67-51h11.46l-22.51,60.93H240.31l-21.37-60.93Z"/><path class="cls-2" d="M288.2,283.87c0,11.94,2.64,22.37,15.12,22.37s13.94-9.06,14.35-10.91H328.8c-.21,1.58-2.42,18.49-25.59,18.49s-26.42-16.44-26.42-31.61c0-19.28,8.54-31.45,27-31.45,20.7,0,25.59,13.19,25.59,28.41,0,1.16-.05,3.2-.21,4.7Zm29.87-6.9c0-10.48-2.87-18.68-14.34-18.68-14.4,0-15.12,14.5-15.32,18.68Z"/><path class="cls-2" d="M339.2,312.69V227.15h11.36v85.54Z"/><path class="cls-3" d="M91.87,143c.83,8.39,6,15.09,17.61,15.09,11,0,16.61-4.68,16.61-14.08,0-8.58-4.49-13.16-18.84-18.51-16.52-6.1-23.8-11.76-23.8-23.58,0-11.21,9.27-20.18,26.47-20.18,20.37,0,25.86,11.3,26.18,20.87H124.69c-.52-4-2.07-13.38-15.18-13.38-10.14,0-14.45,5.38-14.45,11.91,0,7.81,4.51,11.5,17.72,16.37,18.44,6.8,25.19,13.6,25.19,25.76,0,12.89-9.4,22.31-28.82,22.31-21.13,0-28.08-10.71-28.9-22.58Z"/><path class="cls-3" d="M140,103.55h11.1V87.32h11.26v16.23h13.71v7.54H162.35v40c0,4.18,1.18,6.8,7.12,6.8a39.18,39.18,0,0,0,5.55-.31v6.76a36.39,36.39,0,0,1-9.29,1c-9.25,0-14.64-2.92-14.64-12.51V111.09H140Z"/><path class="cls-3" d="M228.2,119.53v34.19c0,3.82.42,8.85.63,10.77h-10.4a31.44,31.44,0,0,1-.78-6.93c-2.9,5-8.83,8-18.61,8-15.13,0-20.58-9.15-20.58-17.62,0-11.16,9.74-19.5,30.38-19.5,3.69,0,5.91,0,8.22.19v-8.11c0-4.77-1.17-10.78-11.83-10.78-11.55,0-12.28,6.39-12.75,10.47h-11c.31-8.71,5.7-17.67,24.09-17.67,15.29,0,22.6,5.74,22.6,17Zm-10.88,16.1a63.76,63.76,0,0,0-7.8-.32c-14,0-19.71,5.19-19.71,12,0,5.62,3.82,10.79,12.25,10.79,11.51,0,15.26-6.29,15.26-19.13Z"/><path class="cls-3" d="M242.41,124.31c0-9.71,0-16.39-.15-20.76h10.93c.15,1.59.36,4.42.36,10.87,3.35-7.36,10.94-11.72,20.82-11.79v9.7c-13.55.34-20.6,6.93-20.6,18.12v34H242.41Z"/><path class="cls-3" d="M99.58,235.07H76.07v-8h58.58v8h-23.5v73.62H99.58Z"/><path class="cls-3" d="M127.53,268.52c0-9.72,0-16.4-.15-20.76H138.3a107.41,107.41,0,0,1,.37,10.87c3.35-7.36,10.94-11.72,20.81-11.8v9.71c-13.54.33-20.59,6.92-20.59,18.12v34H127.53Z"/><path class="cls-3" d="M209.42,297.92c0,3.82.41,8.85.62,10.77H199.65a30.77,30.77,0,0,1-.78-6.93c-2.91,5-8.83,8-18.61,8-15.13,0-20.58-9.15-20.58-17.62,0-11.15,9.74-19.5,30.38-19.5,3.69,0,5.9,0,8.21.2v-8.12c0-4.76-1.16-10.78-11.83-10.78-11.54,0-12.27,6.39-12.74,10.48h-11c.31-8.71,5.7-17.68,24.09-17.68,15.29,0,22.6,5.74,22.6,17Zm-10.88-18.09a63.76,63.76,0,0,0-7.8-.32c-14,0-19.71,5.2-19.71,12,0,5.61,3.82,10.79,12.25,10.79,11.51,0,15.26-6.3,15.26-19.14Z"/><path class="cls-3" d="M225.82,247.76c6.46,19.74,14.28,43.55,15.84,51h.16c1.05-6.72,12.86-38.61,16.68-51H270l-22.52,60.93H235.13l-21.37-60.93Z"/><path class="cls-3" d="M283,279.87c0,11.93,2.64,22.36,15.13,22.36s13.94-9.05,14.35-10.9h11.13c-.21,1.57-2.42,18.48-25.59,18.48s-26.42-16.44-26.42-31.6c0-19.29,8.53-31.46,27-31.46,20.7,0,25.6,13.19,25.6,28.41,0,1.17-.06,3.2-.21,4.71ZM312.9,273c0-10.48-2.87-18.67-14.35-18.67-14.39,0-15.12,14.49-15.32,18.67Z"/><path class="cls-3" d="M334,308.69V223.14h11.36v85.55Z"/></g></g></svg>